# AST/ASF file generated using VICON BodyLanguage
# -----------------------------------------------
:version 1.10
:name VICON
:units
  mass 1.0
  length 0.45
  angle deg
:documentation
   .ast/.asf automatically generated from VICON data using
   VICON BodyBuilder and BodyLanguage model FoxedUp or BRILLIANT.MOD
:root
   order TX TY TZ RX RY RZ
   axis XYZ
   position 0 0 0  
   orientation 0 0 0 
:bonedata
  begin
     id 1 
     name lhipjoint
     direction 0.710188 -0.616876 0.339259 
     length 2.5669 
     axis 0 0 0  XYZ
  end
  begin
     id 2 
     name lfemur
     direction 0.34202 -0.939693 0  
     length 7.12796  
     axis 0 0 20  XYZ
    dof rx ry rz
    limits (-160.0 20.0)
           (-70.0 70.0)
           (-60.0 70.0)
  end
  begin
     id 3 
     name ltibia
     direction 0.34202 -0.939693 0   
     length 7.58108   
     axis 0 0 20   XYZ
    dof rx
    limits (-10.0 170.0)
  end
  begin
     id 4 
     name lfoot
     direction 0.0669471 -0.183936 0.980656   
     length 2.17365   
     axis -90 7.62852e-016 20   XYZ
    dof rx rz
    limits (-45.0 90.0)
           (-70.0 20.0)
  end
  begin
     id 5 
     name ltoes
     direction 1.53508e-011 -4.21705e-011 1   
     length 1.09427   
     axis -90 7.62852e-016 20   XYZ
    dof rx
    limits (-90.0 20.0)
  end
  begin
     id 6 
     name rhipjoint
     direction -0.700191 -0.625589 0.34405   
     length 2.53115  
     axis 0 0 0  XYZ 
  end
  begin
     id 7 
     name rfemur
     direction -0.34202 -0.939693 0   
     length 7.33006   
     axis 0 0 -20   XYZ
    dof rx ry rz
    limits (-160.0 20.0)
           (-70.0 70.0)
           (-70.0 60.0)
  end
  begin
     id 8 
     name rtibia
     direction -0.34202 -0.939693 0   
     length 7.64926   
     axis 0 0 -20   XYZ
    dof rx
    limits (-10.0 170.0)
 end
 begin
     id 9 
     name rfoot
     direction -0.0688927 -0.189281 0.979503   
     length 2.20493  
     axis -90 -7.62852e-016 -20   XYZ
    dof rx rz
    limits (-45.0 90.0)
           (-20.0 70.0)
  end
  begin
     id 10 
     name rtoes
     direction -1.53567e-011 -4.21933e-011 1   
     length 1.10919   
     axis -90 -7.62852e-016 -20   XYZ
    dof rx
    limits (-90.0 20.0)
  end
  begin
     id 11 
     name lowerback
     direction -0.0167868 0.989873 -0.140959   
     length 2.14596   
     axis 0 0 0   XYZ
    dof rx ry rz
    limits (-20.0 45.0)
           (-30.0 30.0)
           (-30.0 30.0)
  end
  begin
     id 12 
     name upperback
     direction 0.0129109 0.998033 0.0613525   
     length 2.10457   
     axis 0 0 0   XYZ
    dof rx ry rz
    limits (-20.0 45.0)
           (-30.0 30.0)
           (-30.0 30.0)
  end
  begin
     id 13 
     name thorax
     direction 0.0177047 0.991119 0.131797   
     length 2.17652   
     axis 0 0 0   XYZ
    dof rx ry rz
    limits (-20.0 45.0)
           (-30.0 30.0)
           (-30.0 30.0)
  end
  begin
     id 14 
     name lowerneck
     direction -0.0336893 0.997548 0.0613464   
     length 1.8912   
     axis 0 0 0   XYZ
    dof rx ry rz
    limits (-20.0 45.0)
           (-30.0 30.0)
           (-30.0 30.0)
  end
  begin
     id 15 
     name upperneck
     direction 0.0435909 0.997179 -0.0611028   
     length 1.8829   
     axis 0 0 0   XYZ
    dof rx ry rz
    limits (-20.0 45.0)
           (-30.0 30.0)
           (-30.0 30.0)
  end
  begin
     id 16
     name head
     direction 0.0175076 0.999444 -0.0283782  
     length 1.93197  
     axis 0 0 0   XYZ
    dof rx ry rz
    limits (-20.0 45.0)
           (-30.0 30.0)
           (-30.0 30.0)
  end
  begin
     id 17 
     name lclavicle
     direction 0.919164 0.389875 0.0559876  
     length 3.60004  
     axis 0 0 0   XYZ
    dof ry rz
    limits (-20.0 10.0)
           (0.0 20.0)
  end
  begin
     id 18 
     name lhumerus
     direction 1 -4.48958e-011 6.89191e-027   
     length 5.43301   
     axis 180 -30 -90   XYZ
    dof rx ry rz
    limits (-60.0 90.0)
           (-90.0 90.0)
           (-90.0 90.0)
  end
  begin
     id 19
     name lradius
     direction 1 -4.4897e-011 3.24727e-027   
     length 3.15936   
     axis 180 -30 -90   XYZ
    dof rx
    limits (-10.0 170.0)
  end
  begin
     id 20
     name lwrist
     direction 1 -4.4897e-011 9.00228e-027   
     length 1.57968   
     axis -6.29373e-015 90 90   XYZ
    dof ry
    limits (-180.0 0.0)
 end
  begin
     id 21 
     name lhand
     direction 1 -4.48968e-011 1.80042e-026   
     length 0.712827   
     axis -1.14882e-014 90 90   XYZ
    dof rx rz
    limits (-90.0 90.0)
           (-45.0 45.0)
  end
  begin
     id 22 
     name lfingers
     direction 1 -4.49019e-011 3.60267e-026   
     length 0.574699   
     axis -2.29769e-014 90 90   XYZ
    dof rx
    limits (0.0 90.0)
  end
  begin
     id 23
     name lthumb
     direction 0.707107 -6.3498e-011 0.707107   
     length 0.825157   
     axis -90 45 5.37419e-014   XYZ
    dof rx rz
    limits (-45.0 45.0)
           (-45.0 45.0)
  end
  begin
     id 24 
     name rclavicle
     direction -0.890334 0.455305 -0.00132111   
     length 3.51494  
     axis 0 0 0   XYZ 
    dof ry rz
    limits (-10.0 20.0)
           (-20.0 0.0)
  end
  begin
     id 25 
     name rhumerus
     direction -1 -4.48967e-011 5.07175e-028  
     length 5.34194   
     axis 180 30 90   XYZ
    dof rx ry rz
    limits (-90.0 60.0)
           (-90.0 90.0)
           (-90.0 90.0)
  end
  begin
     id 26 
     name rradius
     direction -1 -4.48955e-011 3.30467e-027   
     length 3.19351   
     axis 180 30 90   XYZ
    dof rx
    limits (-10.0 170.0)
  end
  begin
     id 27 
     name rwrist
     direction -1 -4.48968e-011 9.00208e-027   
     length 1.59676   
     axis -6.29373e-015 -90 -90   XYZ
    dof ry
    limits (-180.0 0.0)
  end
  begin
     id 28
     name rhand
     direction -1 -4.49e-011 1.80099e-026   
     length 0.743862   
     axis -1.14882e-014 -90 -90   XYZ
    dof rx rz
    limits (-90.0 90.0)
           (-45.0 45.0)
  end
  begin
     id 29
     name rfingers
     direction -1 -4.49009e-011 3.6023e-026   
     length 0.599721   
     axis -2.29769e-014 -90 -90   XYZ
    dof rx
    limits (0.0 90.0)
  end
  begin
     id 30
     name rthumb
     direction -0.707107 -6.35025e-011 0.707107   
     length 0.861083   
     axis -90 -45 -5.37419e-014   XYZ
    dof rx rz
    limits (-45.0 45.0)
           (-45.0 45.0)
  end
:hierarchy
  begin
    root lhipjoint rhipjoint lowerback
    lhipjoint lfemur
    lfemur ltibia
    ltibia lfoot
    lfoot ltoes
    rhipjoint rfemur
    rfemur rtibia
    rtibia rfoot
    rfoot rtoes
    lowerback upperback
    upperback thorax
    thorax lowerneck lclavicle rclavicle
    lowerneck upperneck
    upperneck head
    lclavicle lhumerus
    lhumerus lradius
    lradius lwrist
    lwrist lhand lthumb
    lhand lfingers
    rclavicle rhumerus
    rhumerus rradius
    rradius rwrist
    rwrist rhand rthumb
    rhand rfingers
  end

#!OML:ASF H:\Martial Arts Walks\Project 1\Capture day 1\Session 1\male.ASF
:FULLY-SPECIFIED
:DEGREES
553
root -3.35452 13.9572 -3.84341 -156.201 -73.5692 165.574
lowerback 22.663 6.24627 0.0198749
upperback 0.719344 7.65404 -3.20348
thorax -11.3677 3.39122 -6.00221
lowerneck -0.929401 13.0916 4.42304
upperneck 4.57636 17.7401 -7.43221
head 2.81563 8.76577 -2.51815
rclavicle 2.127e-014 3.57812e-015
rhumerus -26.5308 38.3754 -71.673
rradius 99.3947
rwrist 5.60859
rhand -16.7627 -35.7849
rfingers 7.12502
rthumb 9.46432 -65.5524
lclavicle 2.127e-014 3.57812e-015
lhumerus -25.8895 -9.13101 74.7305
lradius 105.866
lwrist 23.9985
lhand -33.839 15.1814
lfingers 7.12502
lthumb -7.02413 45.0448
rfemur -59.9929 -22.1518 7.10816
rtibia 82.0962
rfoot -19.4752 -12.6949
rtoes -9.18456
lfemur -51.2725 10.4995 -5.95443
ltibia 72.9849
lfoot -21.977 9.28837
ltoes -23.0985
554
root -3.29194 14.0459 -3.91239 -154.788 -74.8938 164.56
lowerback 22.6436 6.15686 0.0713254
upperback 0.655849 7.56066 -3.17379
thorax -11.4352 3.34516 -5.97371
lowerneck -0.997761 12.9802 4.41508
upperneck 4.44705 17.5796 -7.36212
head 2.76415 8.68914 -2.50362
rclavicle 2.66371e-014 -1.66979e-014
rhumerus -26.4628 38.1831 -71.5459
rradius 99.3601
rwrist 5.61012
rhand -17.0819 -35.886
rfingers 7.12502
rthumb 9.15633 -65.6672
lclavicle 2.66371e-014 -1.66979e-014
lhumerus -25.461 -9.40714 74.7798
lradius 105.734
lwrist 23.8397
lhand -33.8146 15.173
lfingers 7.12502
lthumb -7.00055 45.0372
rfemur -59.3638 -21.0959 7.14728
rtibia 81.3788
rfoot -19.0437 -14.4942
rtoes -7.52591
lfemur -52.1088 10.6271 -6.05356
ltibia 72.0252
lfoot -20.9091 7.50058
ltoes -22.4465
555
root -3.22994 14.142 -3.98619 -152.892 -76.2769 163.099
lowerback 22.5569 6.01953 0.051601
upperback 0.596032 7.38867 -3.13483
thorax -11.4789 3.26815 -5.86243
lowerneck -1.04407 12.8424 4.39047
upperneck 4.18887 17.3834 -7.38676
head 2.67196 8.5955 -2.52424
rclavicle -7.17613e-014 2.18663e-014
rhumerus -26.4585 38.03 -71.7103
rradius 99.2514
rwrist 5.83153
rhand -17.009 -35.6298
rfingers 7.12502
rthumb 9.22666 -65.408
lclavicle -7.17613e-014 2.18663e-014
lhumerus -24.9799 -9.59479 74.6839
lradius 105.614
lwrist 23.7704
lhand -33.74 15.1184
lfingers 7.12502
lthumb -6.9286 44.985
rfemur -58.756 -20.0301 7.16603
rtibia 80.6395
rfoot -18.8266 -16.0174
rtoes -5.16327
lfemur -53.0617 10.9594 -6.25485
ltibia 71.1265
lfoot -19.8403 5.09918
ltoes -21.2544
556
root -3.16918 14.2338 -4.06157 -150.923 -77.8497 161.531
lowerback 22.5198 5.83294 0.210502
upperback 0.536953 7.20141 -3.06764
thorax -11.5311 3.17506 -5.8203
lowerneck -1.1154 12.715 4.3897
upperneck 3.96827 17.2001 -7.3746
head 2.59642 8.50798 -2.53291
rclavicle 7.67309e-014 -2.66371e-014
rhumerus -26.5287 37.8139 -71.8956
rradius 99.1845
rwrist 5.96534
rhand -17.1539 -35.5425
rfingers 7.12502
rthumb 9.08686 -65.3267
lclavicle 7.67309e-014 -2.66371e-014
lhumerus -24.4876 -9.85885 74.6613
lradius 105.534
lwrist 23.6488
lhand -34.0532 15.3008
lfingers 7.12502
lthumb -7.23093 45.1573
rfemur -58.08 -19.0145 7.31846
rtibia 79.8643
rfoot -19.0272 -17.1037
rtoes -3.81541
lfemur -54.1538 11.312 -6.4032
ltibia 70.323
lfoot -18.5335 2.47745
ltoes -19.8317
557
root -3.11231 14.3242 -4.14243 -148.395 -79.593 159.4
lowerback 22.4623 5.61433 0.45326
upperback 0.474538 6.99781 -2.97898
thorax -11.5701 3.07154 -5.79384
lowerneck -1.18647 12.5372 4.37002
upperneck 3.69274 16.9462 -7.34784
head 2.49453 8.38623 -2.53965
rclavicle 1.34975e-013 -3.89618e-014
rhumerus -26.6273 37.4932 -71.8353
rradius 99.2743
rwrist 5.78929
rhand -17.3307 -35.5194
rfingers 7.12502
rthumb 8.91622 -65.311
lclavicle 1.34975e-013 -3.89618e-014
lhumerus -23.9283 -10.2894 74.6074
lradius 105.437
lwrist 23.6614
lhand -34.0023 15.2733
lfingers 7.12502
lthumb -7.18181 45.1314
rfemur -57.3628 -18.0712 7.59533
rtibia 79.0128
rfoot -19.3983 -18.1001
rtoes -7.46013
lfemur -55.3737 11.748 -6.58001
ltibia 69.5742
lfoot -16.9824 -0.385536
ltoes -18.448
558
root -3.06162 14.4154 -4.22666 -144.716 -81.4128 156.023
lowerback 22.4194 5.35644 0.719429
upperback 0.452711 6.74844 -2.87132
thorax -11.5754 2.9469 -5.74358
lowerneck -1.28294 12.3686 4.35392
upperneck 3.43672 16.7055 -7.33348
head 2.4068 8.26976 -2.54743
rclavicle -6.97734e-014 -9.93923e-015
rhumerus -26.8646 37.1969 -72.0058
rradius 99.3406
rwrist 5.72974
rhand -17.7629 -35.7706
rfingers 7.12502
rthumb 8.49911 -65.5796
lclavicle -6.97734e-014 -9.93923e-015
lhumerus -23.3126 -10.5927 74.5807
lradius 105.347
lwrist 23.6837
lhand -34.0264 15.2403
lfingers 7.12502
lthumb -7.20508 45.0976
rfemur -56.5495 -17.1047 7.79236
rtibia 78.0872
rfoot -20.4814 -16.8047
rtoes -9.0391
lfemur -56.5948 12.2804 -6.86753
ltibia 68.8769
lfoot -15.0995 -3.46792
ltoes -16.5484
559
root -3.01502 14.5088 -4.3145 -139.212 -83.2536 150.77
lowerback 22.3594 5.07057 0.941543
upperback 0.440317 6.45655 -2.71516
thorax -11.5765 2.80664 -5.59943
lowerneck -1.34288 12.2278 4.2962
upperneck 3.15283 16.5015 -7.3
head 2.29999 8.17246 -2.54375
rclavicle 5.28767e-014 4.37326e-015
rhumerus -27.0989 36.9373 -72.1211
rradius 99.4491
rwrist 5.59813
rhand -17.8682 -35.752
rfingers 7.12502
rthumb 8.39758 -65.565
lclavicle 5.28767e-014 4.37326e-015
lhumerus -22.7241 -10.758 74.623
lradius 105.239
lwrist 23.5811
lhand -33.8815 15.0694
lfingers 7.12502
lthumb -7.06519 44.9315
rfemur -55.7431 -16.0553 8.03985
rtibia 77.1748
rfoot -21.5884 -15.394
rtoes -10.5197
lfemur -57.8584 12.9811 -7.2505
ltibia 68.2159
lfoot -12.8323 -6.69604
ltoes -13.9354
560
root -2.97323 14.5877 -4.40102 -130.005 -85.1285 141.771
lowerback 22.343 4.83261 1.33575
upperback 0.407716 6.27444 -2.54382
thorax -11.598 2.70753 -5.57523
lowerneck -1.36789 11.981 4.31449
upperneck 2.89994 16.1569 -7.28798
head 2.19869 8.00555 -2.56735
rclavicle -7.23576e-014 3.97569e-014
rhumerus -27.5498 36.4457 -72.1138
rradius 99.6691
rwrist 5.25187
rhand -17.9874 -35.452
rfingers 7.12502
rthumb 8.28249 -65.2696
lclavicle -7.23576e-014 3.97569e-014
lhumerus -22.1 -11.2331 74.7401
lradius 105.155
lwrist 23.6686
lhand -33.6849 14.678
lfingers 7.12502
lthumb -6.87537 44.5463
rfemur -54.8651 -14.9818 8.38432
rtibia 76.3157
rfoot -22.244 -15.2501
rtoes -12.9045
lfemur -59.2358 13.6885 -7.61329
ltibia 67.6406
lfoot -10.0668 -9.87143
ltoes -10.3498
561
root -2.93655 14.661 -4.49135 -110.423 -86.7431 122.339
lowerback 22.1973 4.57821 1.47747
upperback 0.447565 6.02104 -2.22791
thorax -11.5166 2.59901 -5.20702
lowerneck -1.39025 11.8095 4.248
upperneck 2.61683 15.9197 -7.40503
head 2.09928 7.88958 -2.6136
rclavicle 2.48481e-014 -3.06128e-014
rhumerus -27.8383 36.1756 -71.9804
rradius 99.8507
rwrist 4.95229
rhand -19 -36.969
rfingers 7.12502
rthumb 7.30512 -66.8229
lclavicle 2.48481e-014 -3.06128e-014
lhumerus -21.4626 -11.4706 74.9745
lradius 105.068
lwrist 23.5096
lhand -33.8852 14.9992
lfingers 7.12502
lthumb -7.06872 44.8612
rfemur -53.9182 -13.7759 8.60091
rtibia 75.5495
rfoot -22.9622 -15.5534
rtoes -13.761
lfemur -60.6135 14.4669 -8.08185
ltibia 67.121
lfoot -6.82154 -12.914
ltoes -6.44936
562
root -2.90472 14.7331 -4.57932 -69.9114 -87.4354 81.8942
lowerback 22.1068 4.28337 1.7379
upperback 0.480092 5.72739 -2.03053
thorax -11.4505 2.45947 -5.03368
lowerneck -1.43972 11.6408 4.19014
upperneck 2.36894 15.6787 -7.33839
head 1.99861 7.77343 -2.59969
rclavicle -2.40529e-014 3.4191e-014
rhumerus -28.2373 35.8852 -71.9024
rradius 100.11
rwrist 4.53171
rhand -17.9489 -35.3816
rfingers 7.12502
rthumb 8.31961 -65.1978
lclavicle -2.40529e-014 3.4191e-014
lhumerus -20.838 -11.7005 74.9853
lradius 105.033
lwrist 23.8144
lhand -33.3701 14.3287
lfingers 7.12502
lthumb -6.5715 44.2067
rfemur -52.8278 -12.5151 8.74061
rtibia 74.8248
rfoot -23.2715 -16.6334
rtoes -14.616
lfemur -61.9538 15.2438 -8.69546
ltibia 66.6905
lfoot -3.15062 -15.5586
ltoes -1.94981
563
root -2.87986 14.7979 -4.66467 -31.949 -86.5901 43.9516
lowerback 21.9691 4.05883 1.91166
upperback 0.516471 5.50866 -1.7868
thorax -11.3607 2.36222 -4.77896
lowerneck -1.45946 11.4482 4.14931
upperneck 2.18513 15.4126 -7.35343
head 1.92262 7.64303 -2.61541
rclavicle -1.19271e-014 9.54166e-015
rhumerus -28.7539 35.4292 -71.9003
rradius 100.271
rwrist 4.32943
rhand -18.2002 -35.6276
rfingers 7.12502
rthumb 8.0771 -65.4532
lclavicle -1.19271e-014 9.54166e-015
lhumerus -20.2254 -12.1523 75.2076
lradius 104.984
lwrist 23.8792
lhand -33.525 14.2964
lfingers 7.12502
lthumb -6.72103 44.1697
rfemur -51.7102 -11.3478 8.86938
rtibia 74.1611
rfoot -23.6857 -17.7741
rtoes -15.2276
lfemur -63.2357 15.8887 -9.38921
ltibia 66.3893
lfoot -0.056732 -16.8992
ltoes 0.39028
